# xmcd
#
# Track frame offsets: 
#        150
#        12768
#        27468
#        39013
#        54543
#        65820
#        77565
#        90075
#        101208
#        110878
#        124930
#        136340
#        149183
#        161940
#        176673
#        188461
#        200226
#        213561
#        226486
#        241953
#        254406
#
# Disc length: 3533 seconds
#
# Revision: 0
# Processed by: cddbd v1.5.2PL0 Copyright (c) Steve Scherf et al.
# Submitted via: ExactAudioCopy v0.95b3
#
DISCID=370dcb15
DTITLE=The Rascals  - The Atlantic Singles, Part 1 (1965-1967) - The C
DTITLE=omplete Atlantic Discography (1965-1971) - Disc 09
DYEAR=1900
DGENRE=
TTITLE0=I Ain't Gonna Eat Out My Heart Anymore (Mono Single Version)
TTITLE1=Slow Down (Mono Single Version)
TTITLE2=Good Lovin' (Mono Single Version)
TTITLE3=Mustang Sally (Mono Single Version)
TTITLE4=You Better Run (Mono Single Version)
TTITLE5=Love Is a Beautiful Thing (Mono Single Version)
TTITLE6=Come on Up (Mono Single Version)
TTITLE7=What Is the Reason (Mono Single Version)
TTITLE8=I've Been Lonely Too Long (Mono Single Version)
TTITLE9=If You Knew (Mono Single Version)
TTITLE10=Groovin' (Mono Single Version)
TTITLE11=Sueno (Mono Single Version)
TTITLE12=A Girl Like You (Mono Single Version)
TTITLE13=It's Love (Mono Single Version)
TTITLE14=Groovin' (Italian Version) [Mono]
TTITLE15=Groovin' (Spanish Version) [Mono]
TTITLE16=How Can I Be Sure [Mono]
TTITLE17=I'm So Happy Now [Mono]
TTITLE18=It's Wonderful [Mono]
TTITLE19=Of Course [Mono]
TTITLE20=A Beautiful Morning (Italian Version) [Mono]
EXTD=
EXTT0=
EXTT1=
EXTT2=
EXTT3=
EXTT4=
EXTT5=
EXTT6=
EXTT7=
EXTT8=
EXTT9=
EXTT10=
EXTT11=
EXTT12=
EXTT13=
EXTT14=
EXTT15=
EXTT16=
EXTT17=
EXTT18=
EXTT19=
EXTT20=
PLAYORDER=
